<svg xmlns="http://www.w3.org/2000/svg" viewBox="-5896 -8788 32 32">
  <defs>
    <style>
      .cls-1 {
        fill: none;
      }

      .cls-2 {
        fill: #2e67b0;
      }
    </style>
  </defs>
  <g id="FB:_Forwards" data-name="FB: Forwards" transform="translate(-6884 -9187.999)">
    <rect id="Rectangle_2295" data-name="Rectangle 2295" class="cls-1" width="32" height="32" rx="2" transform="translate(988 399.999)"/>
    <path id="Path_1789" data-name="Path 1789" class="cls-2" d="M-1.278-11.687a5.306,5.306,0,0,0-2.034.4,5.226,5.226,0,0,0-1.726,1.154A5.227,5.227,0,0,0-6.191-8.409a5.307,5.307,0,0,0-.4,2.034A5.2,5.2,0,0,0-6.175-4.3,5.344,5.344,0,0,0-5.038-2.615,5.344,5.344,0,0,0-3.349-1.478a5.194,5.194,0,0,0,2.071.415V-2.125a4.091,4.091,0,0,1-1.652-.336,4.335,4.335,0,0,1-1.349-.913,4.336,4.336,0,0,1-.913-1.349,4.092,4.092,0,0,1-.336-1.652,4.092,4.092,0,0,1,.336-1.652,4.336,4.336,0,0,1,.913-1.349,4.335,4.335,0,0,1,1.349-.913,4.091,4.091,0,0,1,1.652-.336H4.342L1-7.28l.747.747,4.623-4.624L1.752-15.78,1-15.033l3.337,3.345Z" transform="translate(1004 423.999)"/>
  </g>
</svg>
