<svg xmlns="http://www.w3.org/2000/svg" viewBox="-5824 -8824 32 32">
  <defs>
    <style>
      .cls-1 {
        fill: none;
      }

      .cls-2 {
        fill: #2e67b0;
      }
    </style>
  </defs>
  <g id="FB:_Backwards" data-name="FB: Backwards" transform="translate(-6876 -9191.999)">
    <rect id="Rectangle_2295" data-name="Rectangle 2295" class="cls-1" width="32" height="32" rx="2" transform="translate(1052 367.999)"/>
    <path id="Path_1778" data-name="Path 1778" class="cls-2" d="M1.063-11.687a5.307,5.307,0,0,1,2.034.4,5.227,5.227,0,0,1,1.727,1.154A5.227,5.227,0,0,1,5.977-8.409a5.307,5.307,0,0,1,.4,2.034A5.2,5.2,0,0,1,5.96-4.3,5.344,5.344,0,0,1,4.823-2.615,5.344,5.344,0,0,1,3.134-1.478a5.2,5.2,0,0,1-2.071.415V-2.125a4.092,4.092,0,0,0,1.652-.336,4.336,4.336,0,0,0,1.349-.913,4.336,4.336,0,0,0,.913-1.349,4.092,4.092,0,0,0,.336-1.652,4.092,4.092,0,0,0-.336-1.652,4.336,4.336,0,0,0-.913-1.349,4.336,4.336,0,0,0-1.349-.913,4.092,4.092,0,0,0-1.652-.336h-5.62L-1.22-7.28l-.747.747-4.624-4.624,4.624-4.624.747.747-3.337,3.345Z" transform="translate(1068 391.999)"/>
  </g>
</svg>
