<svg 
  xmlns="http://www.w3.org/2000/svg" 
  xmlns:xlink="http://www.w3.org/1999/xlink">
  <symbol id="rooster-svg-link" viewBox="-5890 -8896 20 32">
    <g transform="translate(-6884 -9199.999)">
      <rect fill="none" width="32" height="32" rx="2" transform="translate(988 303.999)"/>
      <path fill="#666" d="M4.781-10.625a3.587,3.587,0,0,1,1.448.295,3.788,3.788,0,0,1,1.179.8,3.788,3.788,0,0,1,.8,1.179A3.587,3.587,0,0,1,8.5-6.906a3.587,3.587,0,0,1-.295,1.448,3.788,3.788,0,0,1-.8,1.179,3.788,3.788,0,0,1-1.179.8,3.587,3.587,0,0,1-1.448.295H.531A3.587,3.587,0,0,1-.917-3.482a3.788,3.788,0,0,1-1.179-.8,3.788,3.788,0,0,1-.8-1.179,3.587,3.587,0,0,1-.295-1.448,3.587,3.587,0,0,1,.295-1.448,3.788,3.788,0,0,1,.8-1.179,3.788,3.788,0,0,1,1.179-.8,3.587,3.587,0,0,1,1.448-.295h.531v1.063a4.929,4.929,0,0,0-1.208.145,2.926,2.926,0,0,0-1.017.465,2.327,2.327,0,0,0-.7.822,2.625,2.625,0,0,0-.261,1.224,2.529,2.529,0,0,0,.212,1.029,2.737,2.737,0,0,0,.573.843A2.737,2.737,0,0,0-.5-4.462,2.529,2.529,0,0,0,.531-4.25h4.25a2.529,2.529,0,0,0,1.029-.212,2.737,2.737,0,0,0,.843-.573,2.737,2.737,0,0,0,.573-.843,2.529,2.529,0,0,0,.212-1.029,2.625,2.625,0,0,0-.261-1.224,2.327,2.327,0,0,0-.7-.822,2.926,2.926,0,0,0-1.017-.465A4.929,4.929,0,0,0,4.25-9.562v-1.062Zm-5.844,4.25V-7.437A4.929,4.929,0,0,0,.145-7.583a2.926,2.926,0,0,0,1.017-.465,2.327,2.327,0,0,0,.7-.822,2.625,2.625,0,0,0,.261-1.224,2.529,2.529,0,0,0-.212-1.029,2.737,2.737,0,0,0-.573-.843A2.737,2.737,0,0,0,.5-12.538,2.529,2.529,0,0,0-.531-12.75h-4.25a2.529,2.529,0,0,0-1.029.212,2.737,2.737,0,0,0-.843.573,2.737,2.737,0,0,0-.573.843,2.529,2.529,0,0,0-.212,1.029,2.625,2.625,0,0,0,.261,1.224,2.327,2.327,0,0,0,.7.822,2.926,2.926,0,0,0,1.017.465,4.929,4.929,0,0,0,1.208.145v1.063h-.531A3.587,3.587,0,0,1-6.23-6.67a3.788,3.788,0,0,1-1.179-.8,3.788,3.788,0,0,1-.8-1.179A3.587,3.587,0,0,1-8.5-10.094a3.587,3.587,0,0,1,.295-1.448,3.788,3.788,0,0,1,.8-1.179,3.788,3.788,0,0,1,1.179-.8,3.587,3.587,0,0,1,1.448-.295h4.25a3.587,3.587,0,0,1,1.448.295,3.788,3.788,0,0,1,1.179.8,3.788,3.788,0,0,1,.8,1.179,3.587,3.587,0,0,1,.295,1.448,3.587,3.587,0,0,1-.295,1.448,3.788,3.788,0,0,1-.8,1.179,3.788,3.788,0,0,1-1.179.8,3.587,3.587,0,0,1-1.448.295Z" transform="translate(1004 327.999)"/>
    </g>
  </symbol>
  <symbol id="rooster-svg-unlink" viewBox="-5854 -8896 20 32">
    <g transform="translate(-6880 -9199.999)">
      <rect fill="none" width="32" height="32" rx="2" transform="translate(1020 303.999)"/>
      <g>
        <path fill="#666" d="M-.531-13.812a3.558,3.558,0,0,1,1.444.295,3.854,3.854,0,0,1,1.179.8,3.7,3.7,0,0,1,.8,1.179,3.632,3.632,0,0,1,.291,1.448,3.632,3.632,0,0,1-.291,1.448,3.7,3.7,0,0,1-.8,1.179,3.854,3.854,0,0,1-1.179.8,3.558,3.558,0,0,1-1.444.295h-.531V-7.437h.531A2.572,2.572,0,0,0,.5-7.645a2.679,2.679,0,0,0,.843-.569,2.724,2.724,0,0,0,.573-.847,2.558,2.558,0,0,0,.212-1.033,2.529,2.529,0,0,0-.212-1.029,2.737,2.737,0,0,0-.573-.843A2.737,2.737,0,0,0,.5-12.538,2.529,2.529,0,0,0-.531-12.75h-4.25a2.558,2.558,0,0,0-1.033.212,2.724,2.724,0,0,0-.847.573,2.679,2.679,0,0,0-.569.843,2.572,2.572,0,0,0-.208,1.029A2.6,2.6,0,0,0-7.23-9.06a2.666,2.666,0,0,0,.569.847,2.666,2.666,0,0,0,.847.569,2.6,2.6,0,0,0,1.033.208h.531v1.063h-.531A3.587,3.587,0,0,1-6.23-6.67a3.788,3.788,0,0,1-1.179-.8,3.788,3.788,0,0,1-.8-1.179A3.587,3.587,0,0,1-8.5-10.094a3.587,3.587,0,0,1,.295-1.448,3.788,3.788,0,0,1,.8-1.179,3.788,3.788,0,0,1,1.179-.8,3.587,3.587,0,0,1,1.448-.295ZM7.421-7.1a2.661,2.661,0,0,0-.261-.971,2.686,2.686,0,0,0-.573-.78,2.65,2.65,0,0,0-.818-.523,2.574,2.574,0,0,0-.988-.191H4.25v-1.062h.531a3.587,3.587,0,0,1,1.448.295,3.788,3.788,0,0,1,1.179.8,3.788,3.788,0,0,1,.8,1.179A3.587,3.587,0,0,1,8.5-6.906a3.632,3.632,0,0,1-.091.8Zm-9.546.191a2.6,2.6,0,0,0,.208,1.033,2.666,2.666,0,0,0,.569.847A2.666,2.666,0,0,0-.5-4.458,2.6,2.6,0,0,0,.531-4.25H1.992L3.055-3.187H.531A3.587,3.587,0,0,1-.917-3.482a3.788,3.788,0,0,1-1.179-.8,3.788,3.788,0,0,1-.8-1.179,3.587,3.587,0,0,1-.295-1.448,3.587,3.587,0,0,1,.295-1.448,3.788,3.788,0,0,1,.8-1.179,3.788,3.788,0,0,1,1.179-.8,3.587,3.587,0,0,1,1.448-.295h.531v1.063H.531A2.558,2.558,0,0,0-.5-9.351a2.724,2.724,0,0,0-.847.573,2.679,2.679,0,0,0-.569.843A2.572,2.572,0,0,0-2.125-6.906Zm10.6,2.374L6.6-2.656,8.475-.772l-.747.747L5.844-1.9,3.959-.017,3.212-.772,5.1-2.656,3.212-4.541l.747-.747L5.844-3.4,7.728-5.288Z" transform="translate(1036 327.999)"/>
        <path fill="#f35022" d="M8.475-4.532,6.6-2.656,8.475-.772l-.747.747L5.844-1.9,3.959-.017,3.212-.772,5.1-2.656,3.212-4.541l.747-.747L5.844-3.4,7.728-5.288Z" transform="translate(1036 327.999)"/>
      </g>
    </g>
  </symbol>
  <symbol id="rooster-svg-clear-format" viewBox="-5854 -8788 20 32">
    <g transform="translate(-6820 -9291.998)">
      <rect fill="none" width="32" height="32" rx="2" transform="translate(960 503.998)"/>
      <g>
        <path fill="#0078d7" d="M10.318-1.062h3.495V0H5.62L3.561-2.059a1.561,1.561,0,0,1-.344-.519,1.6,1.6,0,0,1-.12-.61,1.6,1.6,0,0,1,.12-.61,1.561,1.561,0,0,1,.344-.519L7.172-7.927l-.54-1.635H2.93L2.225-7.437H1.063L4.25-17H5.313L8.043-8.8l3.113-3.1,5,5ZM6.275-10.625,4.781-15.107,3.287-10.625Zm4.881.216L6.591-5.844l3.5,3.5,4.565-4.565ZM8.807-1.062l.54-.531-3.5-3.5L4.316-3.561a.511.511,0,0,0-.158.374.511.511,0,0,0,.158.374L6.068-1.062Z" transform="translate(968 527.998)"/>
        <path fill="#0078d7" stroke="#fff" stroke-width="1.5" d="M8.807-1.062l.54-.531-3.5-3.5L4.316-3.561a.511.511,0,0,0-.158.374.511.511,0,0,0,.158.374L6.068-1.062Z" transform="translate(968 527.998)"/>
        <path fill="#666" d="M10.318-1.062h3.495V0H5.62L3.561-2.059a1.561,1.561,0,0,1-.344-.519,1.6,1.6,0,0,1-.12-.61,1.6,1.6,0,0,1,.12-.61,1.561,1.561,0,0,1,.344-.519l7.6-7.587,5,5Zm.838-9.347L6.591-5.844l3.5,3.5,4.565-4.565ZM8.807-1.062l.54-.531-3.5-3.5L4.316-3.561a.511.511,0,0,0-.158.374.511.511,0,0,0,.158.374L6.068-1.062Z" transform="translate(968 527.998)"/>
      </g>
    </g>
  </symbol>
  <symbol id="rooster-svg-indent" viewBox="-10370 -10457 20 32">
    <g transform="translate(-11443 -10912.999)">
      <rect fill="none" width="32" height="32" rx="2" transform="translate(1067 455.999)"/>
      <rect fill="#666" width="9" height="1" transform="translate(1082 466.999)"/>
      <rect fill="#666" width="6" height="1" transform="translate(1082 468.999)"/>
      <rect fill="#666" width="9" height="1" transform="translate(1082 470.999)"/>
      <rect fill="#666" width="6" height="1" transform="translate(1082 472.999)"/>
      <rect fill="#666" width="9" height="1" transform="translate(1082 474.999)"/>
      <g transform="translate(2165.999 942.998) rotate(180)">
        <rect fill="#0078d7" width="6" height="1" transform="translate(1086 470.999)"/>
        <path fill="#0078d7" d="M11395,10917v-4h4v1h-3v3Z" transform="translate(-14689.138 812.326) rotate(-45)"/>
      </g>
    </g>
  </symbol>
  <symbol id="rooster-svg-outdent-rtl" viewBox="12 0 20 32">
    <use xlink:href="#rooster-svg-indent" transform="translate(32,0) scale(-1, 1)" />
  </symbol>
  <symbol id="rooster-svg-outdent" viewBox="-10402 -10457 20 32">
    <g transform="translate(-11475 -10912.999)">
      <rect fill="none" width="32" height="32" rx="2" transform="translate(1067 455.999)"/>
      <rect fill="#666" width="9" height="1" transform="translate(1082 466.999)"/>
      <rect fill="#666" width="6" height="1" transform="translate(1082 468.999)"/>
      <rect fill="#666" width="9" height="1" transform="translate(1082 470.999)"/>
      <rect fill="#666" width="6" height="1" transform="translate(1082 472.999)"/>
      <rect fill="#666" width="9" height="1" transform="translate(1082 474.999)"/>
      <g transform="translate(-11)">
        <rect fill="#0078d7" width="6" height="1" transform="translate(1086 470.999)"/>
        <path fill="#0078d7" d="M11395,10917v-4h4v1h-3v3Z" transform="translate(-14689.138 812.326) rotate(-45)"/>
      </g>
    </g>
  </symbol>
  <symbol id="rooster-svg-indent-rtl" viewBox="12 0 20 32">
    <use xlink:href="#rooster-svg-outdent" transform="translate(32,0) scale(-1, 1)" />
  </symbol>
  <symbol id="rooster-svg-numbering" viewBox="-10536 -10457 20 32">
    <g transform="translate(-11603 -10912.999)">
      <rect fill="none" width="32" height="32" rx="2" transform="translate(1067 455.999)"/>
      <rect fill="#666" width="12" height="1" transform="translate(1079 466.999)"/>
      <rect fill="#666" width="12" height="1" transform="translate(1079 470.999)"/>
      <rect fill="#666" width="12" height="1" transform="translate(1079 474.999)"/>
      <path fill="#0078d7" d="M1.121-14.1a1.5,1.5,0,0,1-.311.178.877.877,0,0,1-.353.087v-.573q.257-.091.49-.2a2.376,2.376,0,0,0,.448-.274H1.8v3.2H1.121Zm-.008,3.486a1.414,1.414,0,0,1,.394.054.9.9,0,0,1,.324.166.794.794,0,0,1,.216.278.9.9,0,0,1,.079.39.982.982,0,0,1-.1.452,1.49,1.49,0,0,1-.245.349,2.013,2.013,0,0,1-.32.274q-.174.12-.32.224A1.744,1.744,0,0,0,.9-8.222a.307.307,0,0,0-.1.212H2.125v.573H.042q0-.191,0-.34A.89.89,0,0,1,.125-8.1a1.39,1.39,0,0,1,.34-.477q.216-.2.427-.361a3.419,3.419,0,0,0,.369-.332.548.548,0,0,0,.158-.39.366.366,0,0,0-.125-.315.549.549,0,0,0-.332-.091.958.958,0,0,0-.411.091,1.608,1.608,0,0,0-.361.232v-.606A1.674,1.674,0,0,1,1.112-10.617Zm.3,5.8a.944.944,0,0,1,.506.224.639.639,0,0,1,.208.506.877.877,0,0,1-.1.44.865.865,0,0,1-.27.295,1.19,1.19,0,0,1-.386.166,1.858,1.858,0,0,1-.444.054,2.5,2.5,0,0,1-.4-.033,1.341,1.341,0,0,1-.386-.125v-.606a1.155,1.155,0,0,0,.344.174,1.292,1.292,0,0,0,.386.058.8.8,0,0,0,.386-.091.351.351,0,0,0,.17-.34.326.326,0,0,0-.108-.27.657.657,0,0,0-.261-.125,1.347,1.347,0,0,0-.32-.037H.448v-.531H.714A1.377,1.377,0,0,0,1-5.084.508.508,0,0,0,1.233-5.2a.323.323,0,0,0,.1-.257.32.32,0,0,0-.137-.3.621.621,0,0,0-.328-.083,1.068,1.068,0,0,0-.614.2V-6.2a1.452,1.452,0,0,1,.378-.129,2.092,2.092,0,0,1,.394-.037,1.643,1.643,0,0,1,.365.042.946.946,0,0,1,.324.137.787.787,0,0,1,.232.245.671.671,0,0,1,.091.357.74.74,0,0,1-.162.5.868.868,0,0,1-.461.261Z" transform="translate(1075 480.999)"/>
    </g>
  </symbol>
  <symbol id="rooster-svg-numbering-rtl" viewBox="-10306 -10457 20 32">
    <g transform="translate(-11379 -10912.999)">
      <rect fill="none" width="32" height="32" rx="2" transform="translate(1067 455.999)"/>
      <rect fill="#666" width="12" height="1" transform="translate(1075 466.999)"/>
      <rect fill="#666" width="12" height="1" transform="translate(1075 470.999)"/>
      <rect fill="#666" width="12" height="1" transform="translate(1075 474.999)"/>
      <path fill="#0078d7" d="M1.121-14.1a1.5,1.5,0,0,1-.311.178.877.877,0,0,1-.353.087v-.573q.257-.091.49-.2a2.376,2.376,0,0,0,.448-.274H1.8v3.2H1.121Zm-.008,3.486a1.414,1.414,0,0,1,.394.054.9.9,0,0,1,.324.166.794.794,0,0,1,.216.278.9.9,0,0,1,.079.39.982.982,0,0,1-.1.452,1.49,1.49,0,0,1-.245.349,2.013,2.013,0,0,1-.32.274q-.174.12-.32.224A1.744,1.744,0,0,0,.9-8.222a.307.307,0,0,0-.1.212H2.125v.573H.042q0-.191,0-.34A.89.89,0,0,1,.125-8.1a1.39,1.39,0,0,1,.34-.477q.216-.2.427-.361a3.419,3.419,0,0,0,.369-.332.548.548,0,0,0,.158-.39.366.366,0,0,0-.125-.315.549.549,0,0,0-.332-.091.958.958,0,0,0-.411.091,1.608,1.608,0,0,0-.361.232v-.606A1.674,1.674,0,0,1,1.112-10.617Zm.3,5.8a.944.944,0,0,1,.506.224.639.639,0,0,1,.208.506.877.877,0,0,1-.1.44.865.865,0,0,1-.27.295,1.19,1.19,0,0,1-.386.166,1.858,1.858,0,0,1-.444.054,2.5,2.5,0,0,1-.4-.033,1.341,1.341,0,0,1-.386-.125v-.606a1.155,1.155,0,0,0,.344.174,1.292,1.292,0,0,0,.386.058.8.8,0,0,0,.386-.091.351.351,0,0,0,.17-.34.326.326,0,0,0-.108-.27.657.657,0,0,0-.261-.125,1.347,1.347,0,0,0-.32-.037H.448v-.531H.714A1.377,1.377,0,0,0,1-5.084.508.508,0,0,0,1.233-5.2a.323.323,0,0,0,.1-.257.32.32,0,0,0-.137-.3.621.621,0,0,0-.328-.083,1.068,1.068,0,0,0-.614.2V-6.2a1.452,1.452,0,0,1,.378-.129,2.092,2.092,0,0,1,.394-.037,1.643,1.643,0,0,1,.365.042.946.946,0,0,1,.324.137.787.787,0,0,1,.232.245.671.671,0,0,1,.091.357.74.74,0,0,1-.162.5.868.868,0,0,1-.461.261Z" transform="translate(1089 480.999)"/>
    </g>
  </symbol>
  <symbol id="rooster-svg-bullets" viewBox="-10562 -10457 20 32">
    <g transform="translate(-11635 -10912.999)">
      <rect fill="none" width="32" height="32" rx="2" transform="translate(1067 455.999)"/>
      <rect fill="#666" width="13" height="1" transform="translate(1078 466.999)"/>
      <rect fill="#666" width="13" height="1" transform="translate(1078 469.999)"/>
      <rect fill="#666" width="13" height="1" transform="translate(1078 472.999)"/>
      <rect fill="#666" width="13" height="1" transform="translate(1078 475.999)"/>
      <rect fill="#0078d7" width="1" height="1" transform="translate(1075 466.999)"/>
      <rect fill="#0078d7" width="1" height="1" transform="translate(1075 469.999)"/>
      <rect fill="#0078d7" width="1" height="1" transform="translate(1075 472.999)"/>
      <rect fill="#0078d7" width="1" height="1" transform="translate(1075 475.999)"/>
    </g>
  </symbol>
  <symbol id="rooster-svg-bullets-rtl" viewBox="12 0 20 32">
    <use xlink:href="#rooster-svg-bullets" transform="translate(32,0) scale(-1, 1)" />
  </symbol>
  <symbol id="rooster-svg-highlight" viewBox="-6141 -8740 20 32">
    <g transform="translate(-6999 -9195.999)">
      <rect fill="none" width="32" height="32" rx="2" transform="translate(852 455.999)"/>
      <g>
        <path fill="#ffb900" stroke="#fff" stroke-width="1.5" d="M7.745-2.125,8.807-3.187l-5.088-5.1L1.179-5.736a.394.394,0,0,0-.116.291.394.394,0,0,0,.116.291L4.2-2.125Z" transform="translate(860 479.999)"/>
        <path fill="#666" d="M9.255-2.125H12.75v1.063H3.76L.415-4.416a1.38,1.38,0,0,1-.307-.469A1.5,1.5,0,0,1,0-5.445a1.5,1.5,0,0,1,.108-.56,1.408,1.408,0,0,1,.315-.477l9.936-9.944,6.591,6.6Zm1.1-12.8L4.466-9.031l5.1,5.088,5.885-5.885ZM7.745-2.125,8.807-3.187l-5.088-5.1L1.179-5.736a.394.394,0,0,0-.116.291.394.394,0,0,0,.116.291L4.2-2.125Z" transform="translate(860 479.999)"/>
      </g>
    </g>
  </symbol>
  <symbol id="rooster-svg-color" viewBox="-6106 -8740 20 32">
    <g transform="translate(-6999 -9195.999)">
      <rect fill="none" width="32" height="32" rx="2" transform="translate(887 455.999)"/>
      <g>
        <path fill="#666" d="M13.813-2.125v1.063H2.125V-2.125ZM3.926-3.187H2.806L7.413-17H8.525L13.132-3.187H12.011L10.6-7.437H5.337ZM5.694-8.5h4.549L7.969-15.315Z" transform="translate(895 479.999)"/>
        <path fill="#d82300" d="M13.813-2.125v1.063H2.125V-2.125Z" transform="translate(895 479.999)"/>
      </g>
    </g>
  </symbol>
</svg>