<svg xmlns="http://www.w3.org/2000/svg" xmlns:xlink="http://www.w3.org/1999/xlink">
  <symbol viewBox="0 0 16 16" id="rooster-svg-link">
    <path d="M2.863 8.863A4.6 4.6 0 0 0 4 9v1h-.5a3.376 3.376 0 0 1-1.363-.277 3.525 3.525 0 0 1-1.86-1.86 3.492 3.492 0 0 1 0-2.726 3.525 3.525 0 0 1 1.86-1.86A3.393 3.393 0 0 1 3.5 3h4a3.393 3.393 0 0 1 1.363.277 3.525 3.525 0 0 1 1.86 1.86 3.492 3.492 0 0 1 0 2.726 3.525 3.525 0 0 1-1.86 1.86A3.376 3.376 0 0 1 7.5 10H7V9a4.6 4.6 0 0 0 1.137-.137 2.768 2.768 0 0 0 .957-.437 2.179 2.179 0 0 0 .66-.774A2.47 2.47 0 0 0 10 6.5a2.377 2.377 0 0 0-.2-.969A2.559 2.559 0 0 0 8.469 4.2 2.377 2.377 0 0 0 7.5 4h-4a2.377 2.377 0 0 0-.969.2A2.559 2.559 0 0 0 1.2 5.531 2.377 2.377 0 0 0 1 6.5a2.47 2.47 0 0 0 .246 1.152 2.179 2.179 0 0 0 .66.774 2.768 2.768 0 0 0 .957.437zm12.86-.726a3.525 3.525 0 0 0-1.86-1.86A3.393 3.393 0 0 0 12.5 6H12v1a4.653 4.653 0 0 1 1.137.137 2.768 2.768 0 0 1 .957.437 2.2 2.2 0 0 1 .66.774A2.47 2.47 0 0 1 15 9.5a2.377 2.377 0 0 1-.2.969 2.559 2.559 0 0 1-1.331 1.331 2.377 2.377 0 0 1-.969.2h-4a2.377 2.377 0 0 1-.969-.2A2.559 2.559 0 0 1 6.2 10.469 2.377 2.377 0 0 1 6 9.5a2.47 2.47 0 0 1 .246-1.152 2.2 2.2 0 0 1 .66-.774 2.768 2.768 0 0 1 .957-.437A4.653 4.653 0 0 1 9 7V6h-.5a3.393 3.393 0 0 0-1.363.277 3.525 3.525 0 0 0-1.86 1.86 3.492 3.492 0 0 0 0 2.726 3.525 3.525 0 0 0 1.86 1.86A3.376 3.376 0 0 0 8.5 13h4a3.376 3.376 0 0 0 1.363-.277 3.525 3.525 0 0 0 1.86-1.86 3.492 3.492 0 0 0 0-2.726z"/>
  </symbol>
  <symbol viewBox="0 0 16 16" id="rooster-svg-unlink">
    <path d="M14.211,13.5l1.766,1.773-.7.7L13.5,14.211l-1.773,1.773-.7-.711L12.8,13.5l-1.774-1.773.7-.7L13.5,12.8l1.773-1.774.7.711Z" fill="#e81123"/>
    <path d="M10.719,5.137a3.539,3.539,0,0,1,0,2.726,3.5,3.5,0,0,1-.75,1.11,3.636,3.636,0,0,1-1.11.75A3.343,3.343,0,0,1,7.5,10H7V9h.5a2.424,2.424,0,0,0,.969-.2,2.533,2.533,0,0,0,.793-.535,2.59,2.59,0,0,0,.539-.8A2.406,2.406,0,0,0,10,6.5a2.377,2.377,0,0,0-.2-.969A2.559,2.559,0,0,0,8.469,4.2,2.377,2.377,0,0,0,7.5,4h-4a2.406,2.406,0,0,0-.973.2,2.59,2.59,0,0,0-.8.539,2.533,2.533,0,0,0-.535.793A2.424,2.424,0,0,0,1,6.5a2.454,2.454,0,0,0,.2.973A2.487,2.487,0,0,0,2.527,8.805,2.454,2.454,0,0,0,3.5,9H4v1H3.5a3.376,3.376,0,0,1-1.363-.277,3.525,3.525,0,0,1-1.86-1.86,3.492,3.492,0,0,1,0-2.726,3.525,3.525,0,0,1,1.86-1.86A3.393,3.393,0,0,1,3.5,3h4a3.36,3.36,0,0,1,1.359.277,3.636,3.636,0,0,1,1.11.75A3.509,3.509,0,0,1,10.719,5.137ZM8.5,12a2.454,2.454,0,0,1-.973-.2A2.487,2.487,0,0,1,6.2,10.473,2.454,2.454,0,0,1,6,9.5a2.424,2.424,0,0,1,.2-.969,2.533,2.533,0,0,1,.535-.793,2.59,2.59,0,0,1,.8-.539A2.406,2.406,0,0,1,8.5,7H9V6H8.5a3.393,3.393,0,0,0-1.363.277,3.525,3.525,0,0,0-1.86,1.86,3.492,3.492,0,0,0,0,2.726,3.525,3.525,0,0,0,1.86,1.86A3.376,3.376,0,0,0,8.5,13h2.375l-1-1Zm7.223-3.863a3.525,3.525,0,0,0-1.86-1.86A3.393,3.393,0,0,0,12.5,6H12V7h.5a2.423,2.423,0,0,1,.93.18,2.51,2.51,0,0,1,1.554,2.14l.93.93a3.428,3.428,0,0,0-.191-2.113Z"/>
  </symbol>
  <symbol viewBox="0 0 16 16" id="rooster-svg-clear-format">
    <path d="M5,0H4L1,9H2.094l.664-2H6.242L6.75,8.539l.82-.82ZM3.094,6,4.5,1.781,5.906,6Z"/>
    <path d="M5.5,11.2l3.3,3.3-.508.5H5.711L4.063,13.352a.49.49,0,0,1,0-.7Zm5-5L6.2,10.5l3.3,3.3,4.3-4.3Z" fill="#e68497"/>
  </symbol>
  <symbol viewBox="0 0 16 16" id="rooster-svg-indent">
    <path d="M6.953 7.5L4.477 9.977l-.7-.7L5.047 8H0V7h5.047L3.773 5.727l.7-.7z" fill="#0078d4"/>
    <path d="M16 3v1H8V3zm-2 2H8v1h6zM8 8h8V7H8zm6 1H8v1h6zm-6 3h8v-1H8z"/>
  </symbol>
  <symbol viewBox="0 0 16 16" id="rooster-svg-outdent-rtl">
    <use xlink:href="#rooster-svg-indent" transform="translate(16,0) scale(-1, 1)" />
  </symbol>
  <symbol viewBox="0 0 16 16" id="rooster-svg-outdent">
    <path d="M7 8H1.953l1.274 1.273-.7.7L.047 7.5l2.476-2.477.7.7L1.953 7H7z" fill="#0078d4"/>
    <path d="M16 3v1H8V3zm-2 2H8v1h6zM8 8h8V7H8zm6 1H8v1h6zm-6 3h8v-1H8z"/>
  </symbol>
  <symbol viewBox="0 0 16 16" id="rooster-svg-indent-rtl">
    <use xlink:href="#rooster-svg-outdent" transform="translate(16,0) scale(-1, 1)" />
  </symbol>
  <symbol viewBox="0 0 16 16" id="rooster-svg-numbering">
    <path d="M.75 8.461H2V9H.039v-.32a.842.842 0 0 1 .074-.3 1.3 1.3 0 0 1 .321-.449c.135-.122.269-.236.4-.34a3.11 3.11 0 0 0 .348-.313.518.518 0 0 0 .148-.367.347.347 0 0 0-.117-.3.521.521 0 0 0-.313-.086.9.9 0 0 0-.386.086 1.542 1.542 0 0 0-.34.219v-.57a1.57 1.57 0 0 1 .867-.25 1.325 1.325 0 0 1 .371.051.856.856 0 0 1 .305.156.752.752 0 0 1 .2.262.838.838 0 0 1 .083.365.922.922 0 0 1-.094.426 1.411 1.411 0 0 1-.23.328 1.893 1.893 0 0 1-.3.257c-.109.076-.21.146-.3.211a1.685 1.685 0 0 0-.23.2.288.288 0 0 0-.096.195zm.578 3.008v-.008a.82.82 0 0 0 .434-.246.7.7 0 0 0 .152-.473.627.627 0 0 0-.086-.336.741.741 0 0 0-.219-.23.884.884 0 0 0-.3-.129 1.558 1.558 0 0 0-.344-.039 2 2 0 0 0-.371.035 1.375 1.375 0 0 0-.356.121v.536a1.007 1.007 0 0 1 .579-.187.582.582 0 0 1 .308.078.37.37 0 0 1 .039.523.464.464 0 0 1-.219.106 1.305 1.305 0 0 1-.269.027H.422v.5h.266a1.283 1.283 0 0 1 .3.035.613.613 0 0 1 .246.118.3.3 0 0 1 .1.253.332.332 0 0 1-.16.321.76.76 0 0 1-.363.086 1.2 1.2 0 0 1-.362-.06 1.076 1.076 0 0 1-.324-.164v.57a1.206 1.206 0 0 0 .363.117 2.336 2.336 0 0 0 .379.032A1.739 1.739 0 0 0 1.285 13a1.127 1.127 0 0 0 .363-.156.8.8 0 0 0 .352-.688.6.6 0 0 0-.2-.476.884.884 0 0 0-.472-.211zm-.273-8.742V5H1.7V1.992h-.387a2.2 2.2 0 0 1-.422.258c-.146.068-.3.13-.461.188v.539A.839.839 0 0 0 .762 2.9a1.477 1.477 0 0 0 .293-.173z" fill="#0078d4"/>
    <path d="M16 3v1H4V3zM4 8h12V7H4zm0 4h12v-1H4z"/>
  </symbol>
  <symbol viewBox="0 0 16 16" id="rooster-svg-numbering-rtl">
    <path d="M14.75 8.461H16V9h-1.961v-.32a.842.842 0 0 1 .074-.3 1.3 1.3 0 0 1 .321-.449c.135-.122.269-.236.4-.34a3.11 3.11 0 0 0 .348-.313.518.518 0 0 0 .148-.367.347.347 0 0 0-.117-.3.521.521 0 0 0-.313-.086.9.9 0 0 0-.386.086 1.542 1.542 0 0 0-.34.219v-.57a1.57 1.57 0 0 1 .867-.25 1.325 1.325 0 0 1 .371.051.856.856 0 0 1 .305.156.752.752 0 0 1 .2.262.838.838 0 0 1 .083.365.922.922 0 0 1-.094.426 1.411 1.411 0 0 1-.23.328 1.893 1.893 0 0 1-.3.257c-.109.076-.21.146-.3.211a1.685 1.685 0 0 0-.23.2.288.288 0 0 0-.096.195zm.578 3.008v-.008a.82.82 0 0 0 .434-.246.7.7 0 0 0 .152-.473.627.627 0 0 0-.086-.336.741.741 0 0 0-.219-.23.884.884 0 0 0-.3-.129 1.558 1.558 0 0 0-.344-.039 2 2 0 0 0-.371.035 1.375 1.375 0 0 0-.356.121v.536a1.007 1.007 0 0 1 .579-.187.582.582 0 0 1 .308.078.37.37 0 0 1 .039.523.464.464 0 0 1-.219.106 1.305 1.305 0 0 1-.269.027h-.25v.5h.266a1.283 1.283 0 0 1 .3.035.613.613 0 0 1 .246.118.3.3 0 0 1 .1.253.332.332 0 0 1-.16.321.76.76 0 0 1-.363.086 1.2 1.2 0 0 1-.364-.055 1.076 1.076 0 0 1-.324-.164v.57a1.206 1.206 0 0 0 .363.117 2.336 2.336 0 0 0 .379.032 1.739 1.739 0 0 0 .416-.06 1.127 1.127 0 0 0 .363-.156.8.8 0 0 0 .352-.688.6.6 0 0 0-.2-.476.884.884 0 0 0-.472-.211zm-.273-8.742V5h.64V1.992h-.382a2.2 2.2 0 0 1-.422.258c-.146.068-.3.13-.461.188v.539a.839.839 0 0 0 .332-.082 1.477 1.477 0 0 0 .293-.168z" fill="#0078d4"/>
    <path d="M12 3v1H0V3zM0 8h12V7H0zm0 4h12v-1H0z"/>
  </symbol>
  <symbol viewBox="0 0 16 16" id="rooster-svg-bullets">
    <path d="M1 3v1H0V3zM0 7h1V6H0zm0 3h1V9H0zm0 3h1v-1H0z" fill="#0078d4"/>
    <path d="M16 3v1H3V3zM3 7h13V6H3zm0 3h13V9H3zm0 3h13v-1H3z"/>
  </symbol>
  <symbol viewBox="0 0 16 16" id="rooster-svg-bullets-rtl">
    <use xlink:href="#rooster-svg-bullets" transform="translate(16,0) scale(-1, 1)" />
  </symbol>
  <symbol viewBox="0 0 16 16" id="rooster-svg-highlight-fill">
    <path d="M13,14v2H2V14Z" fill="#ff0"/>
  </symbol>
  <symbol viewBox="0 0 16 16" id="rooster-svg-highlight">
    <use xlink:href="#rooster-svg-highlight-fill" fill="#ffb900"/>
    <path d="M4.918,7.891V4.864A1.547,1.547,0,0,0,3.155,3.127a3.267,3.267,0,0,0-1.7.437v.922a2.247,2.247,0,0,1,1.5-.572q.945,0,.945.995l-1.382.2Q1,5.323,1,6.641a1.306,1.306,0,0,0,.388.986A1.49,1.49,0,0,0,2.464,8a1.54,1.54,0,0,0,1.413-.836H3.9v.727ZM3.585,6.861a1.047,1.047,0,0,1-.8.339.814.814,0,0,1-.565-.189.617.617,0,0,1-.212-.484.643.643,0,0,1,.23-.566,1.551,1.551,0,0,1,.684-.22L3.9,5.605v.4A1.2,1.2,0,0,1,3.585,6.861Zm3.47.357h.018a1.478,1.478,0,0,0,1.034.743L10.525,5.54c0-.039.007-.073.007-.113a2.613,2.613,0,0,0-.5-1.675,1.662,1.662,0,0,0-1.379-.625,1.728,1.728,0,0,0-1.582.928H7.055V1H6V7.891H7.055Zm-.01-1.85a1.486,1.486,0,0,1,.343-1,1.137,1.137,0,0,1,.907-.4,1.025,1.025,0,0,1,.844.389A1.678,1.678,0,0,1,9.45,5.432a2.119,2.119,0,0,1-.335,1.275,1.146,1.146,0,0,1-1.745.1,1.234,1.234,0,0,1-.325-.864Zm7.8-.4a.938.938,0,0,1-.282.686L8.385,11.83l-.148-.222a3.555,3.555,0,0,0-1-1l-.22-.148L13.2,4.282A.937.937,0,0,1,13.881,4a.971.971,0,0,1,.686.282.953.953,0,0,1,.207.31A.978.978,0,0,1,14.849,4.968ZM7.212,12.29a1.251,1.251,0,0,1,0,.961,1.232,1.232,0,0,1-.653.653,1.21,1.21,0,0,1-.48.1H4.439a.381.381,0,0,1-.288-.122,1.23,1.23,0,0,0,.7-1.107,1.212,1.212,0,0,1,.1-.481,1.232,1.232,0,0,1,.653-.653,1.251,1.251,0,0,1,.961,0,1.232,1.232,0,0,1,.653.653Z"/>
  </symbol>
  <symbol viewBox="0 0 16 16" id="rooster-svg-color-fill">
    <path d="M13 14v2H2v-2z"/>
  </symbol>
  <symbol viewBox="0 0 16 16" id="rooster-svg-color">
    <use xlink:href="#rooster-svg-color-fill" fill="#e81123"/>
    <path d="M12.359 13h-1.054L9.977 9H5.023L3.7 13H2.641L6.977 0h1.046zM9.641 8L7.5 1.586 5.359 8z"/>
  </symbol>
  <symbol viewBox="0 0 16 16" id="rooster-svg-photo">
    <path fill="#0078d4" d="M2 12v-1.876l2.5-2.506L8.877 12H2z"/>
    <path d="M16 2v12H0V2zM1 3v5.289L4.5 4.8l5 5 2-2 3.5 3.489V3zm0 10h10.289L4.5 6.2 1 9.711zm14 0v-.289L11.5 9.2l-1.3 1.3 2.511 2.5zm-2.5-7a.505.505 0 0 1-.5-.5.5.5 0 1 1 .852.352A.48.48 0 0 1 12.5 6z"/>
  </symbol>
  <symbol viewBox="0 0 16 16" id="rooster-svg-hash-tag">
    <path d="M13.383,6l-.217,1H10.621l-.63,3h2.747l-.255,1h-2.6L9,15H7.728l.866-4H6.075l-.846,4H3.97l.846-4H2.326l.188-1H5.1l.61-3H3l.2-1H5.852l.836-4H7.942L7.106,6H9.613l.856-4h1.224l-.836,4ZM9.44,7H6.92l-.66,3H8.8Z"/>
  </symbol>
</svg>